<svg width="48" height="52" viewBox="0 0 48 52" fill="none" xmlns="http://www.w3.org/2000/svg">
<path fill-rule="evenodd" clip-rule="evenodd" d="M23.1796 0.0776182C23.7837 -0.047768 24.4094 -0.0201457 25.0021 0.152541L45.2025 6.03782C46.7292 6.48267 47.8299 7.81579 47.905 9.42472C48.2155 16.0839 48.2171 33.5989 40.4579 42.1842C35.3214 48.6935 26.4105 51.3741 24.3854 51.9146C24.1059 51.9892 23.8237 52.0208 23.5367 51.9857C21.9537 51.7915 16.1094 50.5189 7.47936 42.1842C-1.12796 32.6636 -0.268832 15.4638 0.385603 9.16729C0.539066 7.69153 1.5714 6.49777 2.96395 6.04166C10.3354 3.62726 14.8051 1.81574 23.1796 0.0776182ZM41.982 12.2314C40.9514 11.7546 39.7666 12.2418 38.9395 13.0268C32.7743 18.8781 25.2078 27.4718 22.634 29.5415C22.1496 29.9309 21.5633 29.8073 21.09 29.4041C19.6697 28.1938 17.9913 26.4689 16.1332 24.6446C15.1575 23.6869 13.7159 23.2686 12.4978 23.8771C12.3052 23.9733 12.1288 24.0724 11.9654 24.1739C10.3474 25.1793 10.6652 27.5732 11.9815 28.9594L19.2941 36.6611C20.9009 38.3531 23.6025 38.2494 25.0788 36.4392L42.0492 15.6279C42.7575 14.7594 43.3479 13.4304 42.5664 12.6291C42.4188 12.4778 42.2294 12.346 41.982 12.2314Z" fill="#FD601E"/>
</svg>
